<mxfile host="Electron" modified="2025-03-08T08:19:02.555Z" agent="Mozilla/5.0 (Windows NT 10.0; Win64; x64) AppleWebKit/537.36 (KHTML, like Gecko) draw.io/24.4.13 Chrome/124.0.6367.207 Electron/30.0.6 Safari/537.36" etag="nCybzUfdDYyYH859p1Xb" version="24.4.13" type="device">
  <diagram name="第 1 页" id="yT4qRhNYLVPrFPe1Tg_A">
    <mxGraphModel dx="707" dy="820" grid="1" gridSize="10" guides="1" tooltips="1" connect="1" arrows="1" fold="1" page="1" pageScale="1" pageWidth="827" pageHeight="1169" math="0" shadow="0">
      <root>
        <mxCell id="0" />
        <mxCell id="1" parent="0" />
        <mxCell id="C6AVeIka36zln9bHl0rQ-1" value="核心模块" style="whiteSpace=wrap;strokeWidth=2;verticalAlign=top;" vertex="1" parent="1">
          <mxGeometry x="20" y="213" width="173" height="361" as="geometry" />
        </mxCell>
        <mxCell id="C6AVeIka36zln9bHl0rQ-2" value="饮食分析" style="whiteSpace=wrap;strokeWidth=2;" vertex="1" parent="1">
          <mxGeometry x="69" y="347" width="81" height="34" as="geometry" />
        </mxCell>
        <mxCell id="C6AVeIka36zln9bHl0rQ-3" value="用户模块" style="whiteSpace=wrap;strokeWidth=2;" vertex="1" parent="1">
          <mxGeometry x="60" y="238" width="79" height="34" as="geometry" />
        </mxCell>
        <mxCell id="C6AVeIka36zln9bHl0rQ-4" value="健康报告" style="whiteSpace=wrap;strokeWidth=2;" vertex="1" parent="1">
          <mxGeometry x="69" y="431" width="80" height="34" as="geometry" />
        </mxCell>
        <mxCell id="C6AVeIka36zln9bHl0rQ-5" value="数据可视化" style="whiteSpace=wrap;strokeWidth=2;" vertex="1" parent="1">
          <mxGeometry x="61" y="515" width="97" height="34" as="geometry" />
        </mxCell>
        <mxCell id="C6AVeIka36zln9bHl0rQ-6" value="技术栈" style="whiteSpace=wrap;strokeWidth=2;verticalAlign=top;" vertex="1" parent="1">
          <mxGeometry x="213" y="20" width="447" height="277" as="geometry" />
        </mxCell>
        <mxCell id="C6AVeIka36zln9bHl0rQ-7" value="MySQL数据库" style="rounded=1;absoluteArcSize=1;arcSize=14;whiteSpace=wrap;strokeWidth=2;" vertex="1" parent="1">
          <mxGeometry x="248" y="238" width="110" height="34" as="geometry" />
        </mxCell>
        <mxCell id="C6AVeIka36zln9bHl0rQ-8" value="SpringBoot后端" style="whiteSpace=wrap;strokeWidth=2;" vertex="1" parent="1">
          <mxGeometry x="403" y="129" width="125" height="34" as="geometry" />
        </mxCell>
        <mxCell id="C6AVeIka36zln9bHl0rQ-9" value="Redis缓存" style="rounded=1;absoluteArcSize=1;arcSize=14;whiteSpace=wrap;strokeWidth=2;" vertex="1" parent="1">
          <mxGeometry x="423" y="238" width="85" height="34" as="geometry" />
        </mxCell>
        <mxCell id="C6AVeIka36zln9bHl0rQ-10" value="AI服务" style="whiteSpace=wrap;strokeWidth=2;" vertex="1" parent="1">
          <mxGeometry x="562" y="238" width="63" height="34" as="geometry" />
        </mxCell>
        <mxCell id="C6AVeIka36zln9bHl0rQ-11" value="UniApp小程序" style="whiteSpace=wrap;strokeWidth=2;" vertex="1" parent="1">
          <mxGeometry x="250" y="45" width="114" height="34" as="geometry" />
        </mxCell>
        <mxCell id="C6AVeIka36zln9bHl0rQ-12" value="Vue后台管理系统" style="whiteSpace=wrap;strokeWidth=2;" vertex="1" parent="1">
          <mxGeometry x="487" y="45" width="138" height="34" as="geometry" />
        </mxCell>
        <mxCell id="C6AVeIka36zln9bHl0rQ-13" value="" style="curved=1;startArrow=none;endArrow=block;exitX=-0.00134375;exitY=0.9733184353440917;entryX=0.4948153409090909;entryY=0;rounded=0;" edge="1" parent="1" source="C6AVeIka36zln9bHl0rQ-8" target="C6AVeIka36zln9bHl0rQ-7">
          <mxGeometry relative="1" as="geometry">
            <Array as="points">
              <mxPoint x="302" y="188" />
            </Array>
          </mxGeometry>
        </mxCell>
        <mxCell id="C6AVeIka36zln9bHl0rQ-14" value="" style="curved=1;startArrow=none;endArrow=block;exitX=0.49759375;exitY=1;entryX=0.49646139705882353;entryY=0;rounded=0;" edge="1" parent="1" source="C6AVeIka36zln9bHl0rQ-8" target="C6AVeIka36zln9bHl0rQ-9">
          <mxGeometry relative="1" as="geometry">
            <Array as="points" />
          </mxGeometry>
        </mxCell>
        <mxCell id="C6AVeIka36zln9bHl0rQ-15" value="" style="curved=1;startArrow=none;endArrow=block;exitX=0.9115386904761904;exitY=1;entryX=0.4926215277777778;entryY=0;rounded=0;" edge="1" parent="1" source="C6AVeIka36zln9bHl0rQ-8" target="C6AVeIka36zln9bHl0rQ-10">
          <mxGeometry relative="1" as="geometry">
            <Array as="points">
              <mxPoint x="593" y="188" />
            </Array>
          </mxGeometry>
        </mxCell>
        <mxCell id="C6AVeIka36zln9bHl0rQ-16" value="" style="curved=1;startArrow=none;endArrow=block;exitX=0.5015076754385965;exitY=1;entryX=-0.00134375;entryY=0.012477916639403223;rounded=0;" edge="1" parent="1" source="C6AVeIka36zln9bHl0rQ-11" target="C6AVeIka36zln9bHl0rQ-8">
          <mxGeometry relative="1" as="geometry">
            <Array as="points">
              <mxPoint x="307" y="104" />
            </Array>
          </mxGeometry>
        </mxCell>
        <mxCell id="C6AVeIka36zln9bHl0rQ-17" value="" style="curved=1;startArrow=none;endArrow=block;exitX=0.49685801630434784;exitY=1;entryX=0.7902113095238096;entryY=0;rounded=0;" edge="1" parent="1" source="C6AVeIka36zln9bHl0rQ-12" target="C6AVeIka36zln9bHl0rQ-8">
          <mxGeometry relative="1" as="geometry">
            <Array as="points">
              <mxPoint x="556" y="104" />
            </Array>
          </mxGeometry>
        </mxCell>
        <mxCell id="C6AVeIka36zln9bHl0rQ-18" value="" style="curved=1;startArrow=none;endArrow=block;exitX=0.4936708860759494;exitY=1;entryX=0.443856554967666;entryY=0;rounded=0;" edge="1" parent="1" source="C6AVeIka36zln9bHl0rQ-3" target="C6AVeIka36zln9bHl0rQ-2">
          <mxGeometry relative="1" as="geometry">
            <Array as="points">
              <mxPoint x="99" y="322" />
            </Array>
          </mxGeometry>
        </mxCell>
        <mxCell id="C6AVeIka36zln9bHl0rQ-19" value="" style="curved=1;startArrow=none;endArrow=block;exitX=0.49382716049382713;exitY=1;entryX=0.5;entryY=0;rounded=0;" edge="1" parent="1" source="C6AVeIka36zln9bHl0rQ-2" target="C6AVeIka36zln9bHl0rQ-4">
          <mxGeometry relative="1" as="geometry">
            <Array as="points" />
          </mxGeometry>
        </mxCell>
        <mxCell id="C6AVeIka36zln9bHl0rQ-20" value="" style="curved=1;startArrow=none;endArrow=block;exitX=0.5;exitY=1;entryX=0.4948453608247423;entryY=0;rounded=0;" edge="1" parent="1" source="C6AVeIka36zln9bHl0rQ-4" target="C6AVeIka36zln9bHl0rQ-5">
          <mxGeometry relative="1" as="geometry">
            <Array as="points" />
          </mxGeometry>
        </mxCell>
        <mxCell id="C6AVeIka36zln9bHl0rQ-21" value="" style="curved=1;startArrow=none;endArrow=block;exitX=0.4926215277777778;exitY=1;entryX=0.6524838330393886;entryY=0;rounded=0;" edge="1" parent="1" source="C6AVeIka36zln9bHl0rQ-10" target="C6AVeIka36zln9bHl0rQ-2">
          <mxGeometry relative="1" as="geometry">
            <Array as="points">
              <mxPoint x="593" y="297" />
              <mxPoint x="141" y="322" />
            </Array>
          </mxGeometry>
        </mxCell>
      </root>
    </mxGraphModel>
  </diagram>
</mxfile>
